<?xml version="1.0" encoding="UTF-8"?>
<svg width="1515px" height="117px" viewBox="0 0 1515 117" version="1.1" xmlns="http://www.w3.org/2000/svg" xmlns:xlink="http://www.w3.org/1999/xlink">
    <!-- Generator: Sketch 59.1 (86144) - https://sketch.com -->
    <title>MTS Logo</title>
    <desc>Created with Sketch.</desc>
    <g id="Page-1" stroke="none" stroke-width="1" fill="none" fill-rule="evenodd">
        <g id="MTS-Logo" fill="#FFFFFF" fill-rule="nonzero">
            <polygon id="Ecosystem3DView-path" points="441 91.4074718 441 5.95383389 493.386795 5.95383389 493.386795 14.8707352 452.146127 14.8707352 452.146127 43.6029729 485.089123 43.6029729 485.089123 52.5198743 452.146127 52.5198743 452.146127 82.4905708 494.377562 82.4905708 494.377562 91.4074718"></polygon>
            <path d="M559.272789,72.8305938 C558.199453,79.9311248 555.412949,85.0087538 550.913194,88.0636338 C546.413439,91.1185138 540.654664,92.6459308 533.636697,92.6459308 C515.555113,92.6459308 506.514456,81.9952938 506.514456,60.6937005 C506.514456,50.2080326 508.702377,42.220055 513.078286,36.7295281 C517.454195,31.2390012 524.30693,28.493779 533.636697,28.493779 C537.186963,28.493779 540.427564,28.844672 543.358597,29.5464687 C546.28963,30.2482654 548.849085,31.3835077 551.03704,32.9522296 C553.224994,34.5209516 554.979459,36.6056693 556.300488,39.2064452 C557.621517,41.8072211 558.48843,45.0065403 558.901251,48.8044987 L548.374354,48.8044987 C547.796404,44.2634614 546.207064,41.1260645 543.606288,39.3922139 C541.005513,37.6583633 537.682349,36.7914511 533.636697,36.7914511 C528.187453,36.7914511 524.141862,38.5046349 521.499804,41.9310539 C518.857746,45.357473 517.536737,50.2906167 517.536737,56.7306332 L517.536737,64.4090758 C517.536737,71.0967858 518.919668,76.0918518 521.685573,79.3944238 C524.451477,82.6969968 528.435146,84.3482578 533.636697,84.3482578 C537.764913,84.3482578 541.149999,83.5226278 543.792057,81.8713408 C546.434115,80.2200548 548.085377,77.2065028 548.745891,72.8305938 L559.272789,72.8305938 Z" id="Ecosystem3DView-path"></path>
            <path d="M599.274999,28.493779 C609.265281,28.493779 616.572113,31.259642 621.195715,36.7914511 C625.819316,42.3232601 628.131082,50.2493154 628.131082,60.5698547 C628.131082,70.8903938 625.819316,78.8164488 621.195715,84.3482578 C616.572113,89.8800678 609.265281,92.6459308 599.274999,92.6459308 C589.202153,92.6459308 581.87468,89.8800678 577.29236,84.3482578 C572.710041,78.8164488 570.418915,70.8903938 570.418915,60.5698547 C570.418915,50.3318797 572.710041,42.4264652 577.29236,36.853374 C581.87468,31.2802828 589.202153,28.493779 599.274999,28.493779 Z M599.274999,36.7914511 C593.330368,36.7914511 588.871962,38.401431 585.899647,41.6214393 C582.927332,44.8414475 581.441196,49.8777952 581.441196,56.7306332 L581.441196,64.2852298 C581.441196,77.6606488 587.385738,84.3482578 599.274999,84.3482578 C605.054501,84.3482578 609.492266,82.6763558 612.588428,79.3325008 C615.68459,75.9886468 617.232648,70.9729398 617.232648,64.2852298 L617.232648,56.7306332 C617.232648,49.8777952 615.68459,44.8414475 612.588428,41.6214393 C609.492266,38.401431 605.054501,36.7914511 599.274999,36.7914511 Z" id="Combined-Shape"></path>
            <path d="M679.403265,74.8121278 C679.403265,72.0875048 678.45379,70.0647098 676.554811,68.7436808 C674.655831,67.4226518 672.282143,66.3906138 669.433674,65.6475348 C666.585205,64.9044558 663.48909,64.2645918 660.145235,63.7279238 C656.801381,63.1912558 653.705265,62.3449843 650.856796,61.1890839 C648.008328,60.0331835 645.634639,58.3406405 643.73566,56.111404 C641.836681,53.8821675 640.887205,50.7034891 640.887205,46.5752734 C640.887205,44.0983439 641.300021,41.7659371 642.125664,39.5779827 C642.951307,37.3900284 644.292957,35.4704369 646.150654,33.8191506 C648.008351,32.1678643 650.423321,30.8674959 653.395636,29.9180063 C656.367952,28.9685166 659.959445,28.493779 664.170225,28.493779 C667.720491,28.493779 670.981732,28.844672 673.954048,29.5464687 C676.926363,30.2482654 679.485818,31.3628669 681.632491,32.8903067 C683.779163,34.4177465 685.492347,36.3992603 686.772093,38.8349076 C688.05184,41.2705549 688.774267,44.2221848 688.939396,47.689886 L678.412498,47.689886 C678.329934,45.4606496 677.896478,43.6442619 677.112117,42.2406685 C676.327756,40.8370752 675.295718,39.7431144 674.015971,38.9587535 C672.736224,38.1743925 671.270729,37.6170917 669.619443,37.2868345 C667.968157,36.9565772 666.193051,36.7914511 664.294071,36.7914511 C660.000727,36.7914511 656.822049,37.6170818 654.757941,39.2683681 C652.693833,40.9196544 651.661794,43.1488574 651.661794,45.9560441 C651.661794,48.6806665 652.61127,50.6828211 654.510249,51.9625679 C656.409228,53.2423148 658.782917,54.2330717 661.631385,54.9348684 C664.479854,55.6366651 667.57597,56.2558881 670.919824,56.7925562 C674.263679,57.3292242 677.359794,58.1961365 680.208263,59.3933191 C683.056732,60.5905016 685.430421,62.3036854 687.3294,64.5329218 C689.228379,66.7621588 690.177854,69.9408368 690.177854,74.0690528 C690.177854,80.0136828 688.134418,84.5959338 684.047485,87.8159418 C679.960551,91.0359508 673.830243,92.6459308 665.656376,92.6459308 C662.023546,92.6459308 658.63846,92.2537558 655.501016,91.4693948 C652.363572,90.6850338 649.61835,89.4878688 647.265267,87.8778648 C644.912184,86.2678608 643.013233,84.2037838 641.568357,81.6855728 C640.123482,79.1673608 639.27721,76.1331678 639.029517,72.5829028 L649.556415,72.5829028 C649.721544,74.8121388 650.258204,76.6698078 651.166411,78.1559658 C652.074618,79.6421238 653.230502,80.8599288 654.634095,81.8094178 C656.037688,82.7589078 657.668309,83.4194128 659.526006,83.7909518 C661.383703,84.1624918 663.385858,84.3482578 665.53253,84.3482578 C669.825874,84.3482578 673.21096,83.6258318 675.68789,82.1809558 C678.164819,80.7360808 679.403265,78.2798288 679.403265,74.8121278 Z" id="Ecosystem3DView-path"></path>
            <path d="M708.50704,107.87897 C711.809613,107.87897 714.203942,107.362951 715.6901,106.330897 C717.176258,105.298843 718.455985,103.33797 719.529321,100.448219 L721.758547,94.2559268 L697.980143,29.7322375 L709.497807,29.7322375 L727.455456,78.6513488 L745.165413,29.7322375 L755.444618,29.7322375 L729.932373,100.324373 C728.776473,103.544382 727.64123,106.1864 726.526612,108.250508 C725.411994,110.314616 724.152907,111.924596 722.749313,113.080496 C721.34572,114.236397 719.715099,115.041387 717.857402,115.49549 C715.999705,115.949594 713.70858,116.176642 710.983958,116.176642 L703.553206,116.176642 L703.553206,107.87897 L708.50704,107.87897 Z" id="Ecosystem3DView-path"></path>
            <path d="M803.620655,74.8121278 C803.620655,72.0875048 802.67118,70.0647098 800.7722,68.7436808 C798.873221,67.4226518 796.499533,66.3906138 793.651064,65.6475348 C790.802595,64.9044558 787.70648,64.2645918 784.362625,63.7279238 C781.01877,63.1912558 777.922655,62.3449843 775.074186,61.1890839 C772.225717,60.0331835 769.852029,58.3406405 767.953049,56.111404 C766.05407,53.8821675 765.104595,50.7034891 765.104595,46.5752734 C765.104595,44.0983439 765.51741,41.7659371 766.343053,39.5779827 C767.168697,37.3900284 768.510347,35.4704369 770.368044,33.8191506 C772.225741,32.1678643 774.640711,30.8674959 777.613026,29.9180063 C780.585341,28.9685166 784.176835,28.493779 788.387615,28.493779 C791.937881,28.493779 795.199122,28.844672 798.171437,29.5464687 C801.143753,30.2482654 803.703208,31.3628669 805.84988,32.8903067 C807.996552,34.4177465 809.709736,36.3992603 810.989483,38.8349076 C812.26923,41.2705549 812.991657,44.2221848 813.156786,47.689886 L802.629888,47.689886 C802.547324,45.4606496 802.113868,43.6442619 801.329507,42.2406685 C800.545146,40.8370752 799.513107,39.7431144 798.23336,38.9587535 C796.953613,38.1743925 795.488119,37.6170917 793.836833,37.2868345 C792.185546,36.9565772 790.41044,36.7914511 788.511461,36.7914511 C784.218117,36.7914511 781.039438,37.6170818 778.97533,39.2683681 C776.911222,40.9196544 775.879184,43.1488574 775.879184,45.9560441 C775.879184,48.6806665 776.828659,50.6828211 778.727639,51.9625679 C780.626618,53.2423148 783.000306,54.2330717 785.848775,54.9348684 C788.697244,55.6366651 791.793359,56.2558881 795.137214,56.7925562 C798.481069,57.3292242 801.577184,58.1961365 804.425653,59.3933191 C807.274122,60.5905016 809.64781,62.3036854 811.546789,64.5329218 C813.445769,66.7621588 814.395244,69.9408368 814.395244,74.0690528 C814.395244,80.0136828 812.351808,84.5959338 808.264874,87.8159418 C804.177941,91.0359508 798.047632,92.6459308 789.873765,92.6459308 C786.240935,92.6459308 782.855849,92.2537558 779.718405,91.4693948 C776.580962,90.6850338 773.835739,89.4878688 771.482656,87.8778648 C769.129573,86.2678608 767.230623,84.2037838 765.785747,81.6855728 C764.340872,79.1673608 763.4946,76.1331678 763.246907,72.5829028 L773.773805,72.5829028 C773.938933,74.8121388 774.475593,76.6698078 775.383801,78.1559658 C776.292008,79.6421238 777.447891,80.8599288 778.851484,81.8094178 C780.255078,82.7589078 781.885699,83.4194128 783.743396,83.7909518 C785.601093,84.1624918 787.603247,84.3482578 789.749919,84.3482578 C794.043264,84.3482578 797.42835,83.6258318 799.905279,82.1809558 C802.382209,80.7360808 803.620655,78.2798288 803.620655,74.8121278 Z" id="Ecosystem3DView-path"></path>
            <path d="M822.073687,29.7322375 L830.123667,29.7322375 L830.123667,9.91690109 L840.650565,9.91690109 L840.650565,29.7322375 L856.502834,29.7322375 L856.502834,38.0299096 L840.650565,38.0299096 L840.650565,76.5459698 C840.650565,78.9403348 841.125302,80.6328778 842.074792,81.6236498 C843.024282,82.6144208 844.654902,83.1097998 846.966703,83.1097998 L856.502834,83.1097998 L856.502834,91.4074718 L843.994403,91.4074718 C839.040544,91.4074718 835.490332,90.3341518 833.343659,88.1874798 C831.196987,86.0408078 830.123667,82.4905948 830.123667,77.5367368 L830.123667,38.0299096 L822.073687,38.0299096 L822.073687,29.7322375 Z" id="Ecosystem3DView-path"></path>
            <path d="M894.028127,28.493779 C902.532251,28.493779 909.054734,30.8261859 913.595772,35.4910696 C918.136809,40.1559534 920.407293,47.2357371 920.407293,56.7306332 L920.407293,59.3313961 L876.937399,59.3313961 L876.937399,64.2852298 C876.937399,70.5601178 878.361612,75.4726208 881.210081,79.0228868 C884.05855,82.5731518 888.331189,84.3482578 894.028127,84.3482578 C898.073778,84.3482578 901.562068,83.5226278 904.493101,81.8713408 C907.424135,80.2200548 909.219881,77.2065028 909.880396,72.8305938 L920.407293,72.8305938 C919.251393,79.6834318 916.423608,84.6991388 911.923853,87.8778648 C907.424097,91.0565908 901.458915,92.6459308 894.028127,92.6459308 C884.368102,92.6459308 877.267678,89.8387858 872.72664,84.2244128 C868.185603,78.6100388 865.915118,70.7252648 865.915118,60.5698547 C865.915118,50.3318797 868.185603,42.4264652 872.72664,36.853374 C877.267678,31.2802828 884.368102,28.493779 894.028127,28.493779 Z M893.904281,36.7914511 C888.702729,36.7914511 884.780983,37.9679749 882.138925,40.3210578 C879.496867,42.6741408 877.845606,46.41012 877.185091,51.5291074 L909.137321,51.5291074 C908.641935,46.41012 907.217722,42.6741408 904.864639,40.3210578 C902.511556,37.9679749 898.85814,36.7914511 893.904281,36.7914511 Z" id="Combined-Shape"></path>
            <path d="M974.65178,52.1483367 C974.65178,46.2862704 973.47525,42.1168351 971.12217,39.6399056 C968.76909,37.1629762 965.36336,35.9245301 960.90489,35.9245301 C956.44641,35.9245301 952.937483,37.2042578 950.37799,39.7637515 C947.818496,42.3232452 946.538768,46.451399 946.538768,52.1483367 L946.538768,91.4074718 L936.011871,91.4074718 L936.011871,29.7322375 L945.919539,29.7322375 L945.919539,38.8968305 C947.735954,35.1814364 950.31605,32.4362141 953.6599,30.6610814 C957.00376,28.8859486 960.73974,27.9983956 964.86795,27.9983956 C974.36285,27.9983956 980.5138,31.6724524 983.32099,39.0206764 C985.21997,35.3052823 987.94455,32.5394192 991.49481,30.7230043 C995.04508,28.9065894 999.04939,27.9983956 1003.50786,27.9983956 C1010.69096,27.9983956 1015.87179,29.9592686 1019.05051,33.8810735 C1022.22924,37.8028785 1023.81858,43.8919053 1023.81858,52.1483367 L1023.81858,91.4074718 L1013.29168,91.4074718 L1013.29168,52.1483367 C1013.29168,46.2862704 1012.09452,42.1168351 1009.70015,39.6399056 C1007.30579,37.1629762 1003.9207,35.9245301 999.54479,35.9245301 C995.16888,35.9245301 991.72188,37.1216947 989.20366,39.5160598 C986.68545,41.9104249 985.3438,45.832171 985.17867,51.2814157 L985.17867,91.4074718 L974.65178,91.4074718 L974.65178,52.1483367 Z" id="Ecosystem3DView-path"></path>
            <path d="M1100.72685,83.7290288 C1106.50636,83.7290288 1110.90284,82.5112238 1113.91644,80.0755768 C1116.93003,77.6399288 1118.43681,74.0690758 1118.43681,69.3629098 L1118.43681,65.1521508 C1118.43681,60.4459853 1116.93003,56.9370545 1113.91644,54.6252538 C1110.90284,52.313453 1106.6302,51.1575699 1101.09839,51.1575699 L1093.91533,51.1575699 L1093.91533,42.1168227 L1101.09839,42.1168227 C1105.80456,42.1168227 1109.41669,41.0022212 1111.9349,38.7729847 C1114.45312,36.5437482 1115.7122,33.3237882 1115.7122,29.1130082 L1115.7122,25.7691702 C1115.7122,21.3932616 1114.37055,18.2765055 1111.68721,16.4188084 C1109.00387,14.5611113 1105.35046,13.6322767 1100.72685,13.6322767 C1095.5253,13.6322767 1091.56227,14.7055967 1088.83765,16.8522689 C1086.11303,18.998941 1084.54433,22.8381241 1084.13151,28.3699331 L1072.49,28.3699331 C1072.82026,23.8288958 1073.74909,20.0516351 1075.27653,17.0380376 C1076.80397,14.0244402 1078.80613,11.6094702 1081.28306,9.79305529 C1083.75998,7.97664039 1086.64969,6.67627189 1089.95226,5.89191099 C1093.25484,5.10754999 1096.84633,4.71537539 1100.72685,4.71537539 C1104.60738,4.71537539 1108.17823,5.12819069 1111.43952,5.95383389 C1114.70081,6.77947699 1117.50796,8.07984549 1119.86104,9.85497819 C1122.21412,11.630111 1124.05115,13.9212363 1125.37218,16.728423 C1126.69321,19.5356097 1127.35371,22.9619773 1127.35371,27.0076287 C1127.35371,31.7137946 1126.09463,35.8006669 1123.57641,39.2683681 C1121.0582,42.7360693 1117.69376,45.0065539 1113.48298,46.07989 C1118.43684,47.0706617 1122.44114,49.3824278 1125.49602,53.0152577 C1128.5509,56.6480875 1130.07832,61.3129013 1130.07832,67.0098388 C1130.07832,75.3488348 1127.60143,81.7061918 1122.64757,86.0820998 C1117.69371,90.4580088 1110.38688,92.6459308 1100.72685,92.6459308 C1090.9017,92.6459308 1083.47102,90.6231348 1078.4346,86.5774838 C1073.39818,82.5318318 1070.54975,75.8029418 1069.88924,66.3906098 L1081.53075,66.3906098 C1081.94357,72.3352408 1083.61547,76.7110838 1086.5465,79.5182698 C1089.47754,82.3254568 1094.20427,83.7290288 1100.72685,83.7290288 Z" id="Ecosystem3DView-path"></path>
            <path d="M1173.79591,5.95383389 C1180.81387,5.95383389 1186.77906,6.90330929 1191.69163,8.80228849 C1196.60421,10.7012677 1200.56724,13.4671307 1203.58083,17.0999606 C1206.59443,20.7327904 1208.78235,25.2118373 1210.14466,30.5372355 C1211.50698,35.8626338 1212.18812,41.9103791 1212.18812,48.6806529 C1212.18812,55.2032337 1211.50698,61.0858528 1210.14466,66.3286868 C1208.78235,71.5715208 1206.59443,76.0505678 1203.58083,79.7659618 C1200.56724,83.4813558 1196.60421,86.3504228 1191.69163,88.3732488 C1186.77906,90.3960738 1180.81387,91.4074718 1173.79591,91.4074718 L1147.0452,91.4074718 L1147.0452,5.95383389 L1173.79591,5.95383389 Z M1173.79591,14.8707352 L1158.19133,14.8707352 L1158.19133,82.4905708 L1173.79591,82.4905708 C1183.2908,82.4905708 1190.14354,79.8485518 1194.35432,74.5644358 C1198.5651,69.2803198 1200.67046,61.9322061 1200.67046,52.5198743 L1200.67046,44.5937397 C1200.67046,35.1814079 1198.54446,27.8745757 1194.2924,22.6730239 C1190.04033,17.4714721 1183.20824,14.8707352 1173.79591,14.8707352 Z" id="Combined-Shape"></path>
            <polygon id="Ecosystem3DView-path" points="1282.53256 91.4074718 1251.5711 5.95383389 1262.71723 5.95383389 1290.33485 82.4905708 1316.46633 5.95383389 1326.99323 5.95383389 1297.88945 91.4074718"></polygon>
            <polygon id="Ecosystem3DView-path" points="1339.6255 91.4074718 1339.6255 29.7322375 1350.1524 29.7322375 1350.1524 91.4074718"></polygon>
            <path d="M1352.38163,8.30690509 C1352.38163,13.2607639 1349.82217,15.7376562 1344.70318,15.7376562 C1339.83189,15.7376562 1337.39628,13.2607639 1337.39628,8.30690509 C1337.39628,3.43561049 1339.83189,0.999999792 1344.70318,0.999999792 C1349.82217,0.999999792 1352.38163,3.43561049 1352.38163,8.30690509 Z" id="Ecosystem3DView-path"></path>
            <path d="M1393.86999,28.493779 C1402.37411,28.493779 1408.89659,30.8261859 1413.43763,35.4910696 C1417.97867,40.1559534 1420.24915,47.2357371 1420.24915,56.7306332 L1420.24915,59.3313961 L1376.77926,59.3313961 L1376.77926,64.2852298 C1376.77926,70.5601178 1378.20347,75.4726208 1381.05194,79.0228868 C1383.90041,82.5731518 1388.17305,84.3482578 1393.86999,84.3482578 C1397.91564,84.3482578 1401.40393,83.5226278 1404.33496,81.8713408 C1407.26599,80.2200548 1409.06174,77.2065028 1409.72225,72.8305938 L1420.24915,72.8305938 C1419.09325,79.6834318 1416.26547,84.6991388 1411.76571,87.8778648 C1407.26596,91.0565908 1401.30077,92.6459308 1393.86999,92.6459308 C1384.20996,92.6459308 1377.10954,89.8387858 1372.5685,84.2244128 C1368.02746,78.6100388 1365.75698,70.7252648 1365.75698,60.5698547 C1365.75698,50.3318797 1368.02746,42.4264652 1372.5685,36.853374 C1377.10954,31.2802828 1384.20996,28.493779 1393.86999,28.493779 Z M1393.74614,36.7914511 C1388.54459,36.7914511 1384.62284,37.9679749 1381.98078,40.3210578 C1379.33873,42.6741408 1377.68746,46.41012 1377.02695,51.5291074 L1408.97918,51.5291074 C1408.48379,46.41012 1407.05958,42.6741408 1404.7065,40.3210578 C1402.35342,37.9679749 1398.7,36.7914511 1393.74614,36.7914511 Z" id="Combined-Shape"></path>
            <polygon id="Ecosystem3DView-path" points="1472.01672 39.0206764 1460.12752 91.4074718 1445.01832 91.4074718 1429.53759 29.7322375 1440.43603 29.7322375 1453.43984 81.1282658 1465.08135 29.7322375 1479.57132 29.7322375 1491.21283 81.3759578 1504.34049 29.7322375 1514.372 29.7322375 1498.76742 91.4074718 1483.90592 91.4074718"></polygon>
            <path d="M34.5226694,0.33888 C27.4041798,0.33888 18.9642579,7.18265604 12.0021746,18.6885415 C4.74733079,30.604492 0.418086,45.3548045 0.418086,58.1650779 C0.418086,76.9187889 10.9464324,95.8309113 34.5226694,95.8309113 C58.0778517,95.8309113 68.6272527,76.9187889 68.6272527,58.1650779 C68.6272527,45.3548045 64.3010157,30.604492 57.0802605,18.6885415 C50.0580209,7.18265604 41.6211069,0.33888 34.5226694,0.33888" id="Fill-1"></path>
            <polyline id="Fill-2" points="218.685013 28.4749607 242.559023 28.4749607 242.559023 90.7156248 268.137461 90.7156248 268.137461 28.4749607 292.010469 28.4749607 292.010469 5.45416646 218.686016 5.45416646 218.685013 28.4749607"></polyline>
            <path d="M346.574193,28.4749607 L384.091641,28.4749607 L384.091641,5.45416646 L346.577201,5.45416646 C312.106667,5.45416646 293.703867,22.5916795 293.703867,48.0848956 C293.703867,73.5781118 312.106667,90.7156248 346.577201,90.7156248 L384.091641,90.7156248 L384.091641,67.6948305 L346.574193,67.6948305 C330.624766,67.6948305 320.134518,61.9930206 320.134518,48.0848956 C320.134518,34.1777732 330.624766,28.4749607 346.574193,28.4749607" id="Fill-3"></path>
            <polyline id="Fill-4" points="166.664896 5.45416646 153.029479 56.346354 139.39306 5.45416646 94.2046876 5.45416646 94.2046876 90.7156248 119.783125 90.7156248 119.783125 21.3654946 138.365391 90.7156248 167.692565 90.7156248 186.286862 21.32138 186.286862 90.7156248 211.865299 90.7156248 211.865299 5.45416646 166.664896 5.45416646"></polyline>
        </g>
    </g>
</svg>