<svg width="73" height="18" viewBox="0 0 73 18" fill="none" xmlns="http://www.w3.org/2000/svg">
<path fill-rule="evenodd" clip-rule="evenodd" d="M0 10.9001C0 14.4351 1.98457 18 6.42862 18C10.8687 18 12.8572 14.4351 12.8572 10.9001C12.8572 8.48538 12.0418 5.7048 10.6807 3.45886C9.357 1.29003 7.76666 0 6.42862 0C5.08681 0 3.49572 1.29003 2.18357 3.45886C0.816051 5.7048 0 8.48538 0 10.9001ZM45.6424 5.30347H41.1424V0.964296H54.9639V5.30347H50.4639V17.0357H45.6424V5.30347ZM65.2491 5.30366H72.3211V0.964296H65.2497C58.7521 0.964296 55.2832 4.19467 55.2832 9.00008C55.2832 13.8055 58.7521 17.0359 65.2497 17.0359H72.3211V12.6965H65.2491C62.2427 12.6965 60.2653 11.6217 60.2653 9.00008C60.2653 6.37843 62.2427 5.30366 65.2491 5.30366ZM28.7669 10.5572L31.3374 0.964296H39.8575V17.0359H35.0359V3.95504L31.5311 17.0359H26.0028L22.5003 3.96335L22.5001 17.0359H17.6788V0.964296H26.1965L28.7669 10.5572Z" fill="white"/>
</svg>
